<svg id="Camada_1" data-name="Camada 1" xmlns="http://www.w3.org/2000/svg" viewBox="0 0 2854.27 545.99">
  <defs>
    <style>
      .cls-1, .cls-2 {
        fill: #fff;
      }

      .cls-2 {
        font-size: 209.3px;
        font-family: Arial-BoldMT, Arial;
        font-weight: 700;
      }
    </style>
  </defs>
  <title>01</title>
  <g>
    <path class="cls-1" d="M359.92,83.66c.83,5.71,2,11.39,2.45,17.13,3.75,43.34-11.44,78.7-47,103.65-35.34,24.76-73.56,27-112.89,9.22-1.33-.6-2.61-1.3-4.63-2.31-3.93,5.26-7.81,10.41-11.65,15.61q-46.85,63.36-93.66,126.74a36,36,0,0,0-2.11,3.67l-5.46,2.09c-6.14-2-13-2.81-18.25-6.13-6.77-4.26-12.29-10.5-18.34-15.88l-4.18-10.93c1.87-3.27,3.23-7,5.68-9.76Q105.78,253.7,162,190.92c3-3.31,4.05-5.32.85-9.64C121,124.88,137.27,49.7,198.54,15.1a19.92,19.92,0,0,0,2.78-2.31L221.81,5a17,17,0,0,0,3.53-.1c44.58-10.54,89.35,5.84,116.37,42.73,3.68,5,6.93,10.38,10.38,15.58Zm-196.51,63A93.65,93.65,0,0,0,284.24,201.5c50-18.77,73.72-72.3,54.87-124.06-17-46.76-73-71-121.42-52.67S145,97.72,163.41,146.69Z" transform="translate(-44.16 5.54)"/>
    <path class="cls-1" d="M291.52,63.65a24.55,24.55,0,0,1,3.1,2.82,7.56,7.56,0,0,1,1.06,7.15c-.13.45-.28.9-.42,1.35q-14.84,47.56-29.67,95.11a8.72,8.72,0,0,1-3.76,5.21,8.1,8.1,0,0,1-4.11,1.15l-1.21,0-52.43-16.36a21.6,21.6,0,0,1-3-2.65c-1.8-2.27-1.92-4.88-1.08-7.59q4.15-13.28,8.29-26.57Q219.15,88.51,230,53.7a8.71,8.71,0,0,1,3.76-5.21,8.11,8.11,0,0,1,4.11-1.15l1.21,0ZM289,76.16,234.21,59.05l-27,86.55L262,162.71Zm-52.65,85.67a4,4,0,1,0-4.93,2.65A4,4,0,0,0,236.39,161.83Zm26.61-99,5.22,1.63c.93.29,1.85.6,2.79.86a1,1,0,0,0,1.3-.6c.22-.63-.13-1-.66-1.28a3.37,3.37,0,0,0-.53-.19l-14.84-4.63a1.69,1.69,0,0,0-.91-.15c-.34.11-.82.39-.87.67a1.68,1.68,0,0,0,.44,1.1c.14.19.5.22.77.31Z" transform="translate(-44.16 5.54)"/>
  </g>
  <g>
    <g>
      <path class="cls-1" d="M2630.86,114.27c6.94.24,13.91.13,20.81.78,52.14,4.87,90.76,30.46,112.66,78,21.74,47.18,16.13,92.91-13.33,135.69-1,1.44-2.1,2.81-3.74,5,5.38,5.78,10.65,11.49,16,17.16q65,69.1,130,138.16a43.34,43.34,0,0,0,3.89,3.29l1.3,6.92c-3.63,6.86-6.12,14.76-11.19,20.3-6.5,7.1-15.07,12.3-22.75,18.31l-13.84,2.6c-3.48-2.92-7.59-5.33-10.33-8.82q-62.66-79.81-124.93-159.93c-3.28-4.22-5.43-5.94-11.24-3.07-75.8,37.47-161.34,2.07-189.17-77.93a24,24,0,0,0-2.13-3.79L2508,261a20.48,20.48,0,0,0,.65-4.2c-2.91-55.06,26.11-104.57,75.61-128.66,6.75-3.28,13.78-6,20.68-8.94Zm32.43,246.3a112.73,112.73,0,0,0,90.88-131.33c-11.48-63.31-69.8-102.85-135.16-91.65-59,10.12-99.8,71.17-88.47,132.49S2601.33,371.86,2663.3,360.57Z" transform="translate(-44.16 5.54)"/>
      <g>
        <path class="cls-1" d="M2619.15,195.16q32.14-11.9,64.29-23.79c8.72-3.21,17.42-.51,22.45,6.95a22.91,22.91,0,0,1,2.34,4.81q12.88,34.65,25.68,69.33c4.15,11.24-.44,21.28-11.62,25.42q-63.73,23.61-127.48,47.19c-11.19,4.14-21.27-.52-25.4-11.68q-12.87-34.78-25.74-69.56c-3.43-9.28-.49-18.62,7.82-23.28,3.84-2.15,8.2-3.38,12.37-4.92Q2591.5,205.37,2619.15,195.16Zm3.74,9.56h0l-63.84,23.64c-5.92,2.19-7.81,6.28-5.63,12.18q12.78,34.56,25.58,69.1c2.29,6.18,6.29,8,12.52,5.68l127-47c6.06-2.24,7.93-6.29,5.7-12.33q-12.74-34.44-25.5-68.89c-2.34-6.32-6.31-8.13-12.67-5.77Z" transform="translate(-44.16 5.54)"/>
        <path class="cls-1" d="M2595.23,268.88c5.25,2.3,14.47-1.11,16.8-5.73,4.19-.22,8.09-.32,12-.67,5-.45,7.21.72,9.62,5.5.45.9.81,1.86,1.22,2.78,2,4.55,1.94,6.24-2.11,9.27a77.49,77.49,0,0,1-13.24,8.15,73.2,73.2,0,0,1-25.47,7.25,27.53,27.53,0,0,1-3,.08c-4.88-.15-6.29-1.25-7.58-5.92-.25-.9-.44-1.82-.68-2.72-1.43-5.37-.53-7.66,4.08-10.6a37,37,0,0,0,4.57-3.16A48.33,48.33,0,0,0,2595.23,268.88Z" transform="translate(-44.16 5.54)"/>
        <path class="cls-1" d="M2591.81,232.77c6.32-2.23,13.44-.8,16.44,7,.38,1,1.31,1.73,1.7,2.7.71,1.76,1.87,3.69,1.64,5.39a60.21,60.21,0,0,1-2.87,12.12,8.86,8.86,0,0,1-12.35,4.66,46.19,46.19,0,0,1-6.81-4.82,48.82,48.82,0,0,1-4.65-4.37,3.73,3.73,0,0,1-.84-1.89c-.49-2.87-1-5.75-1.31-8.64C2582.18,239.83,2585.89,234.93,2591.81,232.77Z" transform="translate(-44.16 5.54)"/>
        <path class="cls-1" d="M2667.52,232.76l26.73-9.89c3.16-1.17,5.88-.19,6.84,2.41s-.47,5.11-3.62,6.28q-19.35,7.17-38.71,14.33c-4.81,1.79-9.61,3.61-14.41,5.44-3.22,1.23-6,.33-7.12-2.34-1-2.48.56-5.21,3.8-6.41Z" transform="translate(-44.16 5.54)"/>
        <path class="cls-1" d="M2663.93,223.06,2637.2,233c-3.06,1.13-5.63.23-6.67-2.3s.3-5.21,3.44-6.38q26.72-9.92,53.46-19.8c3.15-1.16,5.9-.15,6.86,2.43s-.43,5.06-3.62,6.25Z" transform="translate(-44.16 5.54)"/>
        <path class="cls-1" d="M2664.52,264.69c-4.53,1.68-9.06,3.37-13.6,5-3.19,1.16-5.87.18-6.83-2.46s.41-5,3.64-6.24q13.59-5,27.2-10.07c3.32-1.23,5.72-.35,6.75,2.42s-.26,5-3.56,6.27C2673.59,261.35,2669,263,2664.52,264.69Z" transform="translate(-44.16 5.54)"/>
      </g>
    </g>
    <g>
      <path class="cls-1" d="M1921.59,189.47c-.19-4.43-.6-8.87-.53-13.3.54-33.46,14.95-59.32,44.15-75.61,29-16.17,58.41-14.84,87.11,1.83,1,.56,1.89,1.2,3.36,2.14,3.42-3.71,6.8-7.35,10.15-11q40.84-44.8,81.65-89.61a27.7,27.7,0,0,0,1.91-2.64l4.35-1.17c4.55,2,9.71,3.17,13.49,6.13,4.84,3.79,8.58,9,12.79,13.6l2.34,8.69c-1.69,2.36-3,5.1-5.11,7q-47.77,43.85-95.77,87.45c-2.53,2.3-3.52,3.75-1.41,7.31,27.59,46.46,9.24,102.7-40.37,124.36a15.32,15.32,0,0,0-2.31,1.55l-16.3,4.38a13.09,13.09,0,0,0-2.71-.21c-34.94,4.55-67.91-11.5-85.69-41.86-2.42-4.14-4.48-8.49-6.71-12.74Zm155.34-32.76a72,72,0,0,0-88.14-51.46c-39.77,10.43-62.11,49.52-51.76,90.62,9.35,37.12,50.25,60.1,88.76,49.86S2087.17,195.63,2076.94,156.71Z" transform="translate(-44.16 5.54)"/>
      <g>
        <path class="cls-1" d="M1973.25,231.41l-24.32-60.79a.72.72,0,0,0,0-.23,14.22,14.22,0,0,1,.54-8.24c1.3-3.57,4.3-4.79,7.66-5.86a3.32,3.32,0,0,0,1.05,4.43c-1.44.93-3.37.88-4.18,2.65a8.32,8.32,0,0,0-.68,5l1.11-.44,77.61-31c2.41-1,3.87-.34,4.84,2.09q3.91,9.76,7.8,19.53a1.07,1.07,0,0,0,1,.75,14.31,14.31,0,0,1,2.93.74,7.88,7.88,0,0,1,2.91,2.55l3,7.58a3.12,3.12,0,0,0,0,.46,6.84,6.84,0,0,1-2,6,.93.93,0,0,0-.15,1.19q3.53,8.77,7,17.56a10,10,0,0,1,.38,1c.46,1.68-.36,3.09-2.23,3.84l-69.16,27.66c-3.69,1.48-7.39,2.94-11.07,4.44a3.23,3.23,0,0,1-2.66.11A10,10,0,0,1,1973.25,231.41Zm64.09-50c4.23-1.69,8.42-3.47,12.69-5,2.15-.79,3.61-3.75,3-5.6-.92-2.63-2-5.2-3.11-7.78a2.92,2.92,0,0,0-.87-1,5.58,5.58,0,0,0-6.1-.76c-8.11,3.26-16.23,6.49-24.33,9.75a10.93,10.93,0,0,0-2.22,1.14,8.26,8.26,0,0,0-2.28,11.13,8.11,8.11,0,0,0,6.13,3.89,9.09,9.09,0,0,0,4.59-.75Q2031.08,184,2037.34,181.46Z" transform="translate(-44.16 5.54)"/>
        <path class="cls-1" d="M1965.91,161c-1,.42-2.1.82-3.13,1.26a.8.8,0,0,1-1.08-.22c-.79-.91-1.65-1.75-2.44-2.65a2.48,2.48,0,0,1,.23-3.74q7.56-7.06,15.12-14.13,8.23-7.66,16.48-15.3,3-2.75,5.88-5.53c1.39-1.32,2.75-1.35,4.09,0s2.87,3.11,4.33,4.64c.36.38.24.61-.08.9q-3.77,3.48-7.53,7l-13.18,12.3L1973.34,156c-.8.75-1.63,1.47-2.4,2.25a6.72,6.72,0,0,1-2.78,1.83C1967.4,160.31,1966.66,160.66,1965.91,161Z" transform="translate(-44.16 5.54)"/>
        <path class="cls-1" d="M2018.77,139.77l-29.34,11.73-.07-.09c1.2-1.14,2.4-2.29,3.61-3.42l11.88-11.05c1.84-1.71,3.68-3.41,5.5-5.14.45-.43.7-.41,1.12.06,2.27,2.49,4.58,4.95,6.87,7.41C2018.48,139.41,2018.59,139.55,2018.77,139.77Z" transform="translate(-44.16 5.54)"/>
        <path class="cls-1" d="M2018.19,136.82c-.13-.13-.24-.24-.34-.35l-2.76-3.33a6.86,6.86,0,0,1,.64-.35c3.52-1.41,7-2.83,10.57-4.22a2.38,2.38,0,0,1,2.65.26,2.28,2.28,0,0,1,.76,2.33,2.19,2.19,0,0,1-1.38,1.59C2025,134.13,2021.58,135.46,2018.19,136.82Z" transform="translate(-44.16 5.54)"/>
        <path class="cls-1" d="M2026,176.77a3.21,3.21,0,0,1-1.83,4.18,3.25,3.25,0,0,1-4.14-1.81,3.18,3.18,0,0,1,1.8-4.18A3.13,3.13,0,0,1,2026,176.77Z" transform="translate(-44.16 5.54)"/>
      </g>
    </g>
  </g>
  <path class="cls-1" d="M82.11,316.87a1.72,1.72,0,0,1,2,1.6c-.75-.24-1.17-1.07-2-1.15Z" transform="translate(-44.16 5.54)"/>
  <path class="cls-1" d="M87.26,320.73c.9.12,1.73.36,2,1.41A7.41,7.41,0,0,1,87.26,320.73Z" transform="translate(-44.16 5.54)"/>
  <path class="cls-1" d="M84.12,318.47c.72.17,1.66,0,1.65,1.21A7.18,7.18,0,0,1,84.12,318.47Z" transform="translate(-44.16 5.54)"/>
  <path class="cls-1" d="M85.85,319.75a1.09,1.09,0,0,1,1.42,1A5.12,5.12,0,0,1,85.85,319.75Z" transform="translate(-44.16 5.54)"/>
  <g>
    <path class="cls-1" d="M101.11,390.73c.51-.21.72.27,1,.47,8.53,6.12,17,12.33,25.57,18.38a126.26,126.26,0,0,0,27.45,14.79,60,60,0,0,0,19.16,3.51c1,0,2,.12,3,.08s1.38.29,1.36,1.4c-.07,5,0,10.06,0,15.09,0,4.5,0,9,0,13.51,0,.91-.28,1.12-1.14,1.12q-37.83,0-75.67,0a7.08,7.08,0,0,1-.78-.08Z" transform="translate(-44.16 5.54)"/>
    <path class="cls-1" d="M260.56,385.12c-4.58,3.32-9.14,6.66-13.73,10-6.7,4.8-13.23,9.85-20.19,14.28a128.79,128.79,0,0,1-17.12,9.15,5,5,0,0,1-.53.17c-1-.14-1.68.51-2.52.75-2.62.73-5.18,1.65-7.84,2.28a68.6,68.6,0,0,1-13.31,1.45c-1.72.06-2-.26-2-2q0-20.94,0-41.87h77.24Z" transform="translate(-44.16 5.54)"/>
    <path class="cls-1" d="M161,421.62a.37.37,0,0,1-.17-.06c-.26-.66-.84-.79-1.45-.86-1.5-.18-2.79-1-4.24-1.35-1.62-.4-2.85-1.65-4.52-2.14a23.62,23.62,0,0,1-3.57-1.58c-.88-.43-1.43-1.43-2.27-1.6-1.57-.32-2.6-1.58-4.13-1.94-1.33-.32-2.14-1.65-3.47-2.05-1.13-.34-1.84-1.57-3.16-1.51l-.25-.17c0-.14-.13-.19-.27-.14l-.07-.05c.16-.38.17-.78-.28-.93a16.07,16.07,0,0,1-3.8-2.39,1.68,1.68,0,0,0-1.22-.36h0c0-1.15-.74-1.19-1.58-1.13h0c-.53-1.25-1.77-1.76-2.77-2.43-1.84-1.25-3.56-2.65-5.31-4-1.4-1.08-2.94-1.94-4.29-3.08-1.05-.89-2.19-1.68-3.3-2.5-.75-.55-1.45-1.49-2.63-1.21h0c-.23-1.05-1.06-1.28-2-1.41h0a1.09,1.09,0,0,0-1.42-1,.12.12,0,0,1-.09-.07c0-1.16-.92-1-1.65-1.21h0a1.72,1.72,0,0,0-2-1.6c0-1.61,0-3.23,0-4.84,0-.68.14-.81.81-.81,7.36,0,14.71,0,22.07,0h54.39q0,21.26,0,42.52c0,.07,0,.15,0,.22a1,1,0,0,1-1.15,1.19,61.1,61.1,0,0,1-11.35-.85C164.24,422,162.68,421.31,161,421.62Z" transform="translate(-44.16 5.54)"/>
    <path class="cls-1" d="M161,421.62c1.71-.3,3.27.43,4.9.71a61.1,61.1,0,0,0,11.35.85,1,1,0,0,0,1.15-1.19c0-.07,0-.15,0-.22q0-21.26,0-42.52h.45c0,.41-.05.82-.05,1.23q0,20.94,0,41.88c0,1-.25,1.32-1.29,1.3a80.15,80.15,0,0,1-16.38-1.88C161,421.76,161,421.67,161,421.62Z" transform="translate(-44.16 5.54)"/>
    <path class="cls-1" d="M183.31,379.24q0,20.94,0,41.87c0,1.77.27,2.09,2,2a68.6,68.6,0,0,0,13.31-1.45c2.67-.63,5.22-1.55,7.84-2.28.84-.23,1.56-.89,2.52-.75a43.8,43.8,0,0,1-11.69,3.78,81.32,81.32,0,0,1-13.2,1.19c-.86,0-1-.22-1-1.05q0-21.67,0-43.34Z" transform="translate(-44.16 5.54)"/>
    <path class="cls-1" d="M260.54,390.66l.24-.15V459l-.21,0c0-.6,0-1.2,0-1.8Q260.54,423.92,260.54,390.66Z" transform="translate(-44.16 5.54)"/>
    <path class="cls-1" d="M260.54,390.66q0,33.26,0,66.52c0,.6,0,1.2,0,1.8-.37,0-.74.07-1.12.07q-37.6,0-75.2,0c-.92,0-1.2-.19-1.19-1.15q.06-14.41,0-28.82c0-.89.27-1.12,1.1-1.13a85.2,85.2,0,0,0,13.32-1.13A64.85,64.85,0,0,0,214,421.24c10.25-4.78,19.56-11,28.61-17.74,5.7-4.21,11.48-8.31,17.22-12.45A7.73,7.73,0,0,1,260.54,390.66Z" transform="translate(-44.16 5.54)"/>
    <path class="cls-1" d="M234.14,482.63a18.58,18.58,0,0,1,4.57,1.52A10.5,10.5,0,0,1,244,495.26c-.71,5-3.64,8-8.28,9.65a26,26,0,0,1-8.4,1.3c-5.44,0-10.88,0-16.32,0-.86,0-1.13-.19-1.12-1.11q0-21.1,0-42.2c0-.89.24-1.12,1.12-1.11,5.7.06,11.4,0,17.1.1a18.66,18.66,0,0,1,8.21,2.07c6.77,3.47,6.25,12.68,2.68,15.91a9.48,9.48,0,0,1-2.18,1.57C236,481.86,235.18,482.18,234.14,482.63Zm-4.44-12.39-.3-.22a.1.1,0,0,1-.14-.05l-.28-.16,0,0c-.09-.41-.43-.41-.75-.54-2.48-1-5.06-.57-7.6-.65-.33,0-.59.07-.63.46,0,3.17,0,6.35,0,9.52,0,.55.13.8.74.79a53.73,53.73,0,0,0,5.93-.2,5.14,5.14,0,0,0,4.34-2.71c.14-.11.37-.19.42-.33a6.67,6.67,0,0,0-.06-4.26c-.21-.68-.48-1.77-1.67-1.68ZM220,492.86q0,2.59,0,5.17c0,.38,0,.76.54.75,2.73-.07,5.48.23,8.19-.24,3.28-.56,5-2.52,5-5.63s-1.52-5-4.95-5.62c-2.75-.53-5.53-.17-8.3-.26-.61,0-.51.41-.51.77C220,489.49,220,491.17,220,492.86Z" transform="translate(-44.16 5.54)"/>
    <path class="cls-1" d="M161.39,478.09c-.09,3.78.16,8.4-.11,13-.5,8.52-5.5,14.15-14,15.32-4.65.64-9.36.7-13.9-.9-6.16-2.16-9.27-6.7-10-13-.47-4.15-.17-8.32-.2-12.49,0-5.7,0-11.41,0-17.11,0-.8.15-1.11,1-1.09q4.11.09,8.22,0c.91,0,1,.31,1,1.09q0,12.44,0,24.88a19,19,0,0,0,.47,4.91,7.66,7.66,0,0,0,7.51,6.11,12.17,12.17,0,0,0,3.8-.31c3.62-1,5.1-3.68,5.62-7.1a24.54,24.54,0,0,0,.23-3.59q0-12.44,0-24.88c0-.87.2-1.14,1.1-1.12q4.05.09,8.1,0c.92,0,1.12.3,1.12,1.14C161.37,467.73,161.39,472.49,161.39,478.09Z" transform="translate(-44.16 5.54)"/>
    <path class="cls-1" d="M169.81,475.19c-.61-3.08-.61-3.08,2.39-3.08,2,0,4.05,0,6.08,0,.71,0,1,.17,1,.93.08,1.78.28,3.56.46,5.63a11,11,0,0,1,4.2-5.41c4.39-2.8,11.47-2.21,14.72,1.28a11.69,11.69,0,0,1,2.83,8.21c.08,7.5,0,15,0,22.52,0,.8-.22,1-1,1-2.74,0-5.48-.05-8.22,0-.84,0-1-.3-1-1q0-9.57,0-19.14a14.25,14.25,0,0,0-.53-3.88c-1.11-3.92-6.86-3.79-8.9-1.21a9.21,9.21,0,0,0-2,5.73q-.12,9.06,0,18.12c0,1.13-.26,1.48-1.42,1.43-2.58-.11-5.17-.06-7.76-.08a5.5,5.5,0,0,1-.46-2.61q0-13.58,0-27.17C170.23,476,170.55,475.38,169.81,475.19Z" transform="translate(-44.16 5.54)"/>
    <path class="cls-1" d="M134,408.53c1.32-.06,2,1.17,3.16,1.51,1.33.4,2.14,1.74,3.47,2.05,1.52.36,2.56,1.63,4.13,1.94.84.17,1.4,1.16,2.27,1.6a23.62,23.62,0,0,0,3.57,1.58c1.67.49,2.9,1.73,4.52,2.14,1.45.36,2.74,1.17,4.24,1.35.61.07,1.19.2,1.45.86a46.09,46.09,0,0,1-9.14-3.32A133.45,133.45,0,0,1,134.6,409C134.38,408.86,134.19,408.68,134,408.53Z" transform="translate(-44.16 5.54)"/>
    <path class="cls-1" d="M169.81,475.19c.74.19.42.79.43,1.21q0,13.58,0,27.17a5.5,5.5,0,0,0,.46,2.61c-1,.29-.91-.32-.91-1q0-13.49,0-27C169.8,477.21,169.8,476.2,169.81,475.19Z" transform="translate(-44.16 5.54)"/>
    <path class="cls-1" d="M229,469.83c-2.92-1.08-6-.64-9-.72,0-.39.29-.47.63-.46,2.54.07,5.13-.31,7.6.65C228.57,469.42,228.91,469.42,229,469.83Z" transform="translate(-44.16 5.54)"/>
    <path class="cls-1" d="M231,476.51a9.1,9.1,0,0,0,.27-3.31,4.71,4.71,0,0,0-1.59-3c1.19-.09,1.45,1,1.67,1.68a6.67,6.67,0,0,1,.06,4.26C231.36,476.32,231.14,476.4,231,476.51Z" transform="translate(-44.16 5.54)"/>
    <path class="cls-1" d="M229.25,470l-.28-.16Z" transform="translate(-44.16 5.54)"/>
    <path class="cls-1" d="M229.7,470.24l-.3-.22Z" transform="translate(-44.16 5.54)"/>
  </g>
  <g>
    <text class="cls-2" transform="translate(1156.15 430.04)"><tspan xml:space="preserve">E PERDID   S</tspan></text>
    <path class="cls-1" d="M2369,340.33c0,4.72.24,9.46,0,14.17-2.05,35.56-18.52,62.44-50.3,78.47-31.55,15.92-62.78,13.2-92.57-5.79-1-.64-2-1.36-3.48-2.42-3.8,3.8-7.56,7.52-11.28,11.28q-45.41,45.84-90.8,91.71a29.49,29.49,0,0,0-2.14,2.73l-4.67,1.05c-4.75-2.3-10.18-3.8-14.07-7.12-5-4.25-8.72-10-13-15l-2.1-9.35c1.9-2.43,3.44-5.29,5.75-7.24Q2143.08,448.27,2196,404c2.79-2.33,3.91-3.84,1.82-7.71-27.3-50.63-5.29-109.64,48.43-130.49a16.31,16.31,0,0,0,2.53-1.54l17.53-3.94a13.93,13.93,0,0,0,2.87.34c37.37-3.3,71.72,15.23,89.29,48.3,2.39,4.51,4.4,9.23,6.58,13.85Zm-155.18,25.4a65,65,0,0,0,77.54,49.69c36.25-7.91,57.85-42.33,50.05-79.76-7-33.82-43.05-56.06-78.16-48.27S2206.08,330.25,2213.85,365.73Z" transform="translate(-44.16 5.54)"/>
  </g>
  <text class="cls-2" transform="translate(341.15 179.56)">ACHADOS</text>
</svg>
